<?xml version="1.0" standalone="no"?>
<!DOCTYPE svg PUBLIC "-//W3C//DTD SVG 20010904//EN"
 "http://www.w3.org/TR/2001/REC-SVG-20010904/DTD/svg10.dtd">
<svg version="1.0" xmlns="http://www.w3.org/2000/svg"
 width="4776.000000pt" height="791.000000pt" viewBox="0 0 4776.000000 791.000000"
 preserveAspectRatio="xMidYMid meet">
<metadata>
Created by potrace 1.16, written by Peter Selinger 2001-2019
</metadata>
<g transform="translate(0.000000,791.000000) scale(0.100000,-0.100000)"
fill="#000000" stroke="none">
<path d="M35580 4960 l0 -2750 365 0 365 0 0 803 c0 441 5 870 10 952 30 442
128 669 334 770 103 51 165 65 311 72 300 12 477 -87 556 -313 54 -155 52
-118 56 -1241 l4 -1043 365 0 365 0 -4 1098 c-3 984 -5 1108 -21 1202 -51 312
-139 505 -300 657 -174 166 -363 254 -616 288 -365 50 -690 -42 -984 -277 -33
-27 -63 -48 -68 -48 -4 0 -8 581 -8 1290 l0 1290 -365 0 -365 0 0 -2750z"/>
<path d="M22633 7532 c-28 -75 -486 -1291 -1017 -2701 -532 -1410 -965 -2565
-963 -2567 2 -2 919 -3 2038 -2 l2035 3 -1017 2698 c-559 1483 -1018 2699
-1020 2702 -3 2 -28 -58 -56 -133z m1057 -2608 l986 -2619 -1984 -3 c-1092 -1
-1987 0 -1989 2 -3 3 1889 5036 1973 5250 7 18 9 18 18 4 5 -9 453 -1194 996
-2634z"/>
<path d="M25758 4968 l-1015 -2693 1018 -3 c561 -1 1477 -1 2038 0 l1018 3
-1015 2693 c-559 1480 -1018 2692 -1022 2692 -4 0 -463 -1212 -1022 -2692z
m2021 -31 c545 -1445 991 -2629 991 -2632 0 -3 -895 -5 -1990 -5 -1094 0
-1990 2 -1990 5 0 3 446 1186 990 2630 545 1444 990 2631 990 2637 0 8 3 8 9
3 5 -6 455 -1192 1000 -2638z"/>
<path d="M2790 7324 c-19 -2 -78 -9 -130 -14 -337 -37 -736 -176 -1030 -360
-120 -75 -290 -204 -395 -302 -485 -447 -746 -925 -836 -1528 -40 -272 -27
-671 32 -965 132 -655 509 -1198 1111 -1599 591 -393 1301 -522 2033 -370 255
54 571 180 795 319 341 212 704 573 897 895 174 290 271 562 330 924 23 145
29 533 9 699 -49 425 -178 780 -402 1114 -118 175 -187 257 -363 433 -418 416
-869 646 -1441 735 -100 16 -526 29 -610 19z m438 -715 c341 -37 641 -159 917
-374 108 -84 295 -280 378 -396 83 -116 195 -339 241 -479 135 -410 127 -921
-20 -1317 -136 -365 -398 -692 -735 -917 -450 -301 -1082 -380 -1608 -200
-392 134 -780 447 -999 806 -180 294 -262 607 -262 1003 0 339 50 571 180 840
213 441 632 810 1082 954 257 82 551 110 826 80z"/>
<path d="M40415 7305 c-701 -91 -1123 -519 -1284 -1300 -19 -93 -41 -230 -41
-254 0 -8 118 -11 375 -11 l374 0 6 38 c58 362 189 605 395 735 140 87 269
121 470 121 169 0 264 -20 395 -83 407 -195 572 -644 395 -1070 -92 -224 -261
-471 -664 -976 -66 -82 -513 -627 -994 -1210 -481 -583 -879 -1066 -885 -1072
-7 -10 329 -13 1677 -13 l1686 0 0 355 0 355 -930 0 c-601 0 -930 3 -930 10 0
5 199 245 441 532 873 1033 1064 1284 1237 1633 199 400 225 860 70 1261 -70
184 -182 347 -345 506 -224 217 -453 342 -758 415 -178 42 -483 55 -690 28z"/>
<path d="M43502 4728 l3 -2513 670 1 c806 2 1035 16 1349 84 327 71 667 238
956 471 449 360 741 834 850 1379 43 214 53 330 53 585 -1 345 -38 590 -133
876 -113 339 -293 631 -550 890 -415 418 -905 642 -1550 708 -214 22 -510 31
-1073 31 l-577 0 2 -2512z m1453 1782 c639 -67 1078 -305 1376 -748 151 -224
242 -478 279 -777 17 -131 14 -419 -5 -553 -70 -497 -317 -898 -731 -1189
-100 -70 -334 -184 -444 -217 -226 -67 -446 -93 -867 -102 l-303 -7 0 1808 0
1808 298 -6 c163 -4 342 -11 397 -17z"/>
<path d="M7875 5463 c-433 -37 -760 -182 -1068 -473 -188 -178 -322 -379 -413
-619 -109 -288 -128 -706 -45 -1027 119 -465 472 -873 927 -1072 198 -87 363
-125 614 -142 312 -21 624 39 920 177 l100 46 0 481 -1 481 -31 -35 c-200
-226 -322 -334 -446 -398 -147 -76 -267 -103 -451 -103 -233 0 -415 62 -582
196 -244 197 -373 515 -356 875 14 286 105 500 296 690 179 179 355 255 614
267 243 11 426 -44 613 -186 77 -58 218 -196 302 -296 l42 -50 0 486 0 486
-98 46 c-289 136 -624 197 -937 170z"/>
<path d="M10803 5459 c-559 -54 -994 -382 -1204 -906 -91 -228 -130 -456 -130
-758 0 -335 50 -588 166 -833 208 -439 594 -728 1085 -813 184 -32 480 -29
671 6 434 81 771 325 1063 771 36 56 66 106 66 111 0 10 -590 343 -607 343 -4
0 -21 -21 -38 -48 -58 -92 -176 -244 -251 -321 -161 -169 -317 -232 -568 -232
-241 0 -412 68 -571 226 -124 124 -201 278 -241 483 -8 41 -14 89 -14 108 l0
34 1135 0 1135 0 0 160 c0 516 -124 909 -384 1213 -294 343 -770 509 -1313
456z m384 -664 c223 -42 380 -160 482 -362 37 -73 82 -199 73 -207 -3 -3 -333
-6 -734 -6 -687 0 -728 1 -728 18 0 30 64 175 105 237 80 123 214 233 345 285
124 49 308 63 457 35z"/>
<path d="M14470 5459 c-305 -34 -570 -157 -795 -370 -147 -140 -246 -273 -332
-444 -130 -257 -184 -507 -184 -840 0 -328 52 -574 175 -831 174 -362 456
-629 803 -759 292 -110 670 -117 945 -19 160 58 355 174 488 290 l65 57 3
-166 2 -167 365 0 365 0 0 1585 0 1585 -365 0 -365 0 0 -180 0 -181 -97 86
c-323 285 -668 399 -1073 354z m575 -684 c166 -49 303 -140 412 -275 58 -72
133 -208 164 -297 99 -284 81 -664 -44 -926 -155 -326 -430 -498 -795 -498
-240 0 -425 74 -590 238 -222 220 -329 584 -282 953 52 398 307 720 642 809
109 30 112 30 263 26 116 -2 155 -8 230 -30z"/>
<path d="M18730 5455 c-134 -21 -218 -49 -345 -113 -93 -47 -221 -135 -285
-198 -25 -24 -49 -44 -53 -44 -4 0 -7 63 -7 140 l0 140 -370 0 -370 0 0 -1585
0 -1585 370 0 369 0 4 938 c3 1021 4 1024 63 1230 88 301 271 433 604 433 302
0 465 -105 535 -345 48 -164 48 -161 52 -1238 l4 -1018 365 0 365 0 -4 1118
c-3 1006 -5 1126 -20 1212 -31 167 -66 282 -124 400 -53 106 -66 123 -163 220
-112 113 -193 168 -323 220 -199 80 -452 108 -667 75z"/>
<path d="M30383 5459 c-559 -54 -994 -382 -1204 -906 -91 -228 -130 -456 -130
-758 0 -335 50 -588 166 -833 208 -439 594 -728 1085 -813 184 -32 480 -29
671 6 434 81 771 325 1063 771 36 56 66 106 66 111 0 10 -590 343 -607 343 -4
0 -21 -21 -38 -48 -58 -92 -176 -244 -251 -321 -161 -169 -317 -232 -568 -232
-241 0 -412 68 -571 226 -124 124 -201 278 -241 483 -8 41 -14 89 -14 108 l0
34 1135 0 1135 0 0 160 c0 516 -124 909 -384 1213 -294 343 -770 509 -1313
456z m384 -664 c223 -42 380 -160 482 -362 37 -73 82 -199 73 -207 -3 -3 -333
-6 -734 -6 -687 0 -728 1 -728 18 0 30 64 175 105 237 80 123 214 233 345 285
124 49 308 63 457 35z"/>
<path d="M33656 5459 c-338 -49 -640 -281 -755 -579 -50 -129 -64 -221 -58
-393 5 -175 18 -234 79 -357 54 -107 154 -212 288 -300 74 -48 645 -340 666
-340 18 0 151 -100 196 -148 87 -91 103 -129 103 -242 0 -114 -24 -179 -87
-236 -70 -63 -145 -86 -282 -85 -200 2 -324 87 -462 322 -26 43 -52 79 -59 79
-12 0 -595 -268 -608 -280 -5 -4 14 -49 40 -101 216 -422 520 -632 968 -669
417 -35 804 126 1038 432 142 186 202 375 200 633 -1 176 -19 261 -84 395
-101 205 -359 387 -874 615 -368 162 -483 281 -433 446 40 136 210 201 354
135 67 -31 146 -110 194 -194 19 -34 39 -62 44 -62 14 0 596 311 596 319 0 10
-99 180 -128 221 -165 224 -374 354 -627 389 -88 13 -223 12 -309 0z"/>
</g>
</svg>
